<svg width="24" height="24" viewBox="0 0 24 24" fill="none" xmlns="http://www.w3.org/2000/svg">
<path d="M12 12C14.7614 12 17 9.76142 17 7C17 4.23858 14.7614 2 12 2C9.23858 2 7 4.23858 7 7C7 9.76142 9.23858 12 12 12ZM12 4C13.6569 4 15 5.34315 15 7C15 8.65685 13.6569 10 12 10C10.3431 10 9 8.65685 9 7C9 5.34315 10.3431 4 12 4Z" fill="#194bfb"/>
<path d="M12 14C7.58172 14 4 17.5817 4 22H6C6 18.6863 8.68629 16 12 16C15.3137 16 18 18.6863 18 22H20C20 17.5817 16.4183 14 12 14Z" fill="#194bfb"/>
</svg>